<svg xmlns="http://www.w3.org/2000/svg" xmlns:xlink="http://www.w3.org/1999/xlink" width="500" zoomAndPan="magnify" viewBox="0 0 375 374.999991" height="500" preserveAspectRatio="xMidYMid meet" version="1.0"><defs><g/><clipPath id="66d073b203"><path d="M 22.199219 0.777344 L 103.945312 0.777344 L 103.945312 82.527344 L 22.199219 82.527344 Z M 22.199219 0.777344 " clip-rule="nonzero"/></clipPath><clipPath id="1a33c4a7ef"><path d="M 111.5625 0.410156 L 193.308594 0.410156 L 193.308594 82.15625 L 111.5625 82.15625 Z M 111.5625 0.410156 " clip-rule="nonzero"/></clipPath><clipPath id="37857b89a0"><path d="M 200.984375 0.410156 L 282.734375 0.410156 L 282.734375 82.15625 L 200.984375 82.15625 Z M 200.984375 0.410156 " clip-rule="nonzero"/></clipPath><clipPath id="53a83e9b89"><rect x="0" width="309" y="0" height="176"/></clipPath></defs><g transform="matrix(1, 0, 0, 1, 35, 67)"><g clip-path="url(#53a83e9b89)"><g clip-path="url(#66d073b203)"><path fill="#ffffff" d="M 68.117188 82.222656 L 68.117188 75.152344 L 64.582031 75.152344 L 64.582031 61.03125 L 61.257812 61.03125 L 61.257812 75.152344 L 57.722656 75.152344 L 57.722656 82.222656 L 32.800781 82.222656 L 32.800781 75.152344 L 29.269531 75.152344 L 29.269531 64.355469 L 32.800781 64.355469 L 32.800781 61.03125 L 25.734375 61.03125 L 25.734375 53.960938 L 22.199219 53.960938 L 22.199219 21.96875 L 25.734375 21.96875 L 25.734375 14.917969 L 36.320312 14.902344 L 36.320312 7.847656 L 39.855469 7.847656 L 39.855469 0.777344 L 57.722656 0.777344 L 57.722656 7.847656 L 68.117188 7.847656 L 68.117188 0.777344 L 85.984375 0.777344 L 85.984375 7.847656 L 89.519531 7.847656 L 89.519531 14.902344 L 100.109375 14.917969 L 100.109375 21.96875 L 103.644531 21.96875 L 103.644531 53.960938 L 100.109375 53.960938 L 100.109375 61.03125 L 93.039062 61.03125 L 93.039062 64.355469 L 96.574219 64.355469 L 96.574219 75.152344 L 93.039062 75.152344 L 93.039062 82.222656 Z M 68.117188 82.222656 " fill-opacity="1" fill-rule="nonzero"/></g><path fill="#000000" d="M 62.921875 9.722656 L 55.851562 9.722656 L 55.851562 2.652344 L 41.730469 2.652344 L 41.730469 9.722656 L 38.195312 9.722656 L 38.195312 16.773438 L 27.605469 16.773438 L 27.605469 23.84375 L 24.070312 23.84375 L 24.070312 52.089844 L 27.605469 52.089844 L 27.605469 59.15625 L 34.675781 59.15625 L 34.675781 66.226562 L 31.140625 66.226562 L 31.140625 73.28125 L 34.675781 73.28125 L 34.675781 80.351562 L 55.851562 80.351562 L 55.851562 73.28125 L 59.386719 73.28125 L 59.386719 59.15625 L 66.457031 59.15625 L 66.457031 73.28125 L 69.988281 73.28125 L 69.988281 80.351562 L 91.164062 80.351562 L 91.164062 73.28125 L 94.699219 73.28125 L 94.699219 66.226562 L 91.164062 66.226562 L 91.164062 59.15625 L 98.234375 59.15625 L 98.234375 52.089844 L 101.769531 52.089844 L 101.769531 23.84375 L 98.234375 23.84375 L 98.234375 16.773438 L 87.648438 16.773438 L 87.648438 9.722656 L 84.113281 9.722656 L 84.113281 2.652344 L 69.988281 2.652344 L 69.988281 9.722656 Z M 62.921875 9.722656 " fill-opacity="1" fill-rule="nonzero"/><path fill="#7304d7" d="M 77.042969 16.773438 L 73.507812 16.773438 L 73.507812 9.722656 L 80.578125 9.722656 L 80.578125 16.789062 Z M 91.183594 23.84375 L 87.648438 23.84375 L 87.648438 30.914062 L 80.578125 30.914062 L 80.578125 23.84375 L 73.507812 23.84375 L 73.507812 16.773438 L 62.90625 16.773438 L 62.90625 16.789062 L 62.90625 16.773438 L 52.300781 16.773438 L 52.300781 23.84375 L 45.230469 23.84375 L 45.230469 30.914062 L 38.160156 30.914062 L 38.160156 23.84375 L 31.09375 23.84375 L 31.09375 52.089844 L 38.160156 52.089844 L 38.160156 45.035156 L 45.230469 45.035156 L 45.230469 66.226562 L 38.160156 66.226562 L 38.160156 73.296875 L 52.300781 73.296875 L 52.300781 52.089844 L 73.507812 52.089844 L 73.507812 73.296875 L 87.648438 73.296875 L 87.648438 66.226562 L 80.578125 66.226562 L 80.578125 45.035156 L 87.648438 45.035156 L 87.648438 52.089844 L 94.714844 52.089844 L 94.714844 23.828125 Z M 48.78125 9.722656 L 45.246094 9.722656 L 45.246094 16.789062 L 52.316406 16.789062 L 52.316406 9.722656 Z M 48.78125 9.722656 " fill-opacity="1" fill-rule="nonzero"/><path fill="#ffcc00" d="M 77.042969 30.914062 L 77.042969 37.984375 L 69.972656 37.984375 L 69.972656 30.914062 Z M 52.316406 30.914062 L 48.78125 30.914062 L 48.78125 37.984375 L 55.851562 37.984375 L 55.851562 30.914062 Z M 52.316406 30.914062 " fill-opacity="1" fill-rule="nonzero"/><g clip-path="url(#1a33c4a7ef)"><path fill="#ffffff" d="M 168.277344 82.15625 L 168.277344 75.0625 L 136.59375 75.0625 L 136.59375 82.15625 L 115.109375 82.15625 L 115.109375 75.0625 L 111.5625 75.0625 L 111.5625 64.222656 L 115.109375 64.222656 L 115.109375 53.789062 L 111.5625 53.789062 L 111.5625 21.679688 L 122.1875 21.679688 L 122.1875 14.601562 L 132.832031 14.585938 L 132.832031 7.503906 L 139.910156 7.503906 L 139.910156 0.410156 L 164.941406 0.410156 L 164.941406 7.503906 L 172.039062 7.503906 L 172.039062 14.585938 L 182.664062 14.601562 L 182.664062 21.679688 L 193.308594 21.679688 L 193.308594 53.789062 L 189.761719 53.789062 L 189.761719 64.222656 L 193.308594 64.222656 L 193.308594 75.0625 L 189.761719 75.0625 L 189.761719 82.15625 Z M 168.277344 82.15625 " fill-opacity="1" fill-rule="nonzero"/></g><path fill="#000000" d="M 152.433594 2.289062 L 141.792969 2.289062 L 141.792969 9.386719 L 134.710938 9.386719 L 134.710938 16.464844 L 124.070312 16.464844 L 124.070312 23.558594 L 113.441406 23.558594 L 113.441406 51.910156 L 116.988281 51.910156 L 116.988281 66.101562 L 113.441406 66.101562 L 113.441406 73.179688 L 116.988281 73.179688 L 116.988281 80.277344 L 134.710938 80.277344 L 134.710938 73.179688 L 170.15625 73.179688 L 170.15625 80.277344 L 187.882812 80.277344 L 187.882812 73.179688 L 191.429688 73.179688 L 191.429688 66.101562 L 187.882812 66.101562 L 187.882812 51.910156 L 191.429688 51.910156 L 191.429688 23.558594 L 180.785156 23.558594 L 180.785156 16.464844 L 170.15625 16.464844 L 170.15625 9.386719 L 163.0625 9.386719 L 163.0625 2.289062 L 155.984375 2.289062 " fill-opacity="1" fill-rule="nonzero"/><path fill="#fb038e" d="M 180.785156 30.65625 L 177.238281 30.65625 L 177.238281 23.558594 L 166.59375 23.558594 L 166.59375 16.464844 L 159.5 16.464844 L 159.5 9.386719 L 145.308594 9.386719 L 145.308594 16.480469 L 138.210938 16.480469 L 138.210938 23.578125 L 127.566406 23.578125 L 127.566406 30.65625 L 120.472656 30.65625 L 120.472656 51.925781 L 138.210938 51.925781 L 138.210938 59.023438 L 127.566406 59.023438 L 127.566406 66.117188 L 120.472656 66.117188 L 120.472656 73.214844 L 131.117188 73.214844 L 131.117188 66.117188 L 141.757812 66.117188 L 141.757812 59.023438 L 148.855469 59.023438 L 148.855469 66.117188 L 155.949219 66.117188 L 155.949219 59.023438 L 163.046875 59.023438 L 163.046875 66.117188 L 173.691406 66.117188 L 173.691406 73.214844 L 184.332031 73.214844 L 184.332031 66.117188 L 177.238281 66.117188 L 177.238281 59.023438 L 166.59375 59.023438 L 166.59375 51.925781 L 184.332031 51.925781 L 184.332031 30.65625 Z M 180.785156 30.65625 " fill-opacity="1" fill-rule="nonzero"/><path fill="#fedb00" d="M 166.609375 30.65625 L 159.515625 30.65625 L 159.515625 37.734375 L 170.15625 37.734375 L 170.15625 30.65625 Z M 166.609375 30.65625 " fill-opacity="1" fill-rule="nonzero"/><path fill="#fedb00" d="M 141.792969 30.65625 L 134.710938 30.65625 L 134.710938 37.734375 L 145.339844 37.734375 L 145.339844 30.65625 Z M 141.792969 30.65625 " fill-opacity="1" fill-rule="nonzero"/><g clip-path="url(#37857b89a0)"><path fill="#ffffff" d="M 279.183594 46.710938 L 279.183594 39.617188 L 282.734375 39.617188 L 282.734375 14.601562 L 279.183594 14.601562 L 279.183594 7.503906 L 265.011719 7.503906 L 265.011719 0.410156 L 247.074219 0.410156 L 247.074219 7.503906 L 236.644531 7.503906 L 236.644531 0.410156 L 218.707031 0.410156 L 218.707031 7.503906 L 204.53125 7.503906 L 204.53125 14.601562 L 200.984375 14.601562 L 200.984375 39.617188 L 204.53125 39.617188 L 204.53125 46.710938 L 208.082031 46.710938 L 208.082031 57.125 L 204.53125 57.125 L 204.53125 64.222656 L 200.984375 64.222656 L 200.984375 75.0625 L 204.53125 75.0625 L 204.53125 82.15625 L 229.5625 82.15625 L 229.5625 75.0625 L 254.152344 75.0625 L 254.152344 82.15625 L 279.183594 82.15625 L 279.183594 75.0625 L 282.734375 75.0625 L 282.734375 64.222656 L 279.183594 64.222656 L 279.183594 57.125 L 275.636719 57.125 L 275.636719 46.710938 Z M 279.183594 46.710938 " fill-opacity="1" fill-rule="nonzero"/></g><path fill="#000000" d="M 277.304688 16.464844 L 277.304688 9.386719 L 263.128906 9.386719 L 263.128906 2.289062 L 248.953125 2.289062 L 248.953125 9.386719 L 234.761719 9.386719 L 234.761719 2.289062 L 220.589844 2.289062 L 220.589844 9.386719 L 206.414062 9.386719 L 206.414062 16.464844 L 202.863281 16.464844 L 202.863281 37.734375 L 206.414062 37.734375 L 206.414062 44.832031 L 209.960938 44.832031 L 209.960938 59.007812 L 206.414062 59.007812 L 206.414062 66.101562 L 202.863281 66.101562 L 202.863281 73.179688 L 206.414062 73.179688 L 206.414062 80.277344 L 227.683594 80.277344 L 227.683594 73.179688 L 256.035156 73.179688 L 256.035156 80.277344 L 277.304688 80.277344 L 277.304688 73.179688 L 280.851562 73.179688 L 280.851562 66.101562 L 277.304688 66.101562 L 277.304688 59.007812 L 273.757812 59.007812 L 273.757812 44.832031 L 277.304688 44.832031 L 277.304688 37.734375 L 280.851562 37.734375 L 280.851562 16.464844 Z M 277.304688 16.464844 " fill-opacity="1" fill-rule="nonzero"/><path fill="#77c914" d="M 256.035156 16.464844 L 252.484375 16.464844 L 252.484375 9.386719 L 259.582031 9.386719 L 259.582031 16.480469 Z M 270.226562 16.464844 L 266.675781 16.464844 L 266.675781 30.65625 L 259.582031 30.65625 L 259.582031 23.558594 L 252.484375 23.558594 L 252.484375 16.464844 L 245.390625 16.464844 L 245.390625 23.558594 L 238.292969 23.558594 L 238.292969 16.464844 L 231.199219 16.464844 L 231.199219 23.558594 L 224.101562 23.558594 L 224.101562 30.65625 L 217.007812 30.65625 L 217.007812 16.464844 L 209.910156 16.464844 L 209.910156 37.75 L 217.007812 37.75 L 217.007812 66.117188 L 209.910156 66.117188 L 209.910156 73.214844 L 224.101562 73.214844 L 224.101562 59.023438 L 231.199219 59.023438 L 231.199219 66.117188 L 238.292969 66.117188 L 238.292969 59.023438 L 245.390625 59.023438 L 245.390625 66.117188 L 252.484375 66.117188 L 252.484375 59.023438 L 259.582031 59.023438 L 259.582031 73.214844 L 273.773438 73.214844 L 273.773438 66.117188 L 266.675781 66.117188 L 266.675781 37.75 L 273.773438 37.75 L 273.773438 16.464844 Z M 227.683594 16.464844 L 231.230469 16.464844 L 231.230469 9.386719 L 224.136719 9.386719 L 224.136719 16.480469 Z M 227.683594 16.464844 " fill-opacity="1" fill-rule="nonzero"/><path fill="#7304d7" d="M 256.035156 44.832031 L 256.035156 51.910156 L 248.9375 51.910156 L 248.9375 37.734375 L 256.035156 37.734375 Z M 234.761719 44.832031 L 234.761719 37.734375 L 227.667969 37.734375 L 227.667969 51.910156 L 234.761719 51.910156 Z M 234.761719 44.832031 " fill-opacity="1" fill-rule="nonzero"/><g fill="#ffffff" fill-opacity="1"><g transform="translate(1.331409, 143.328979)"><g><path d="M 14.359375 -10.90625 L 38.8125 -10.90625 L 38.8125 -35.359375 L 3.453125 -35.359375 L 3.453125 -46.265625 L 49.71875 -46.265625 L 49.71875 0 L 3.453125 0 L 3.453125 -28.59375 L 14.359375 -28.59375 Z M 14.359375 -10.90625 "/></g></g></g><g fill="#ffffff" fill-opacity="1"><g transform="translate(52.525568, 143.328979)"><g><path d="M 49.71875 -35.359375 L 14.359375 -35.359375 L 14.359375 -28.59375 L 49.71875 -28.59375 L 49.71875 -17.6875 L 14.359375 -17.6875 L 14.359375 -10.90625 L 49.71875 -10.90625 L 49.71875 0 L 3.453125 0 L 3.453125 -46.265625 L 49.71875 -46.265625 Z M 49.71875 -35.359375 "/></g></g></g><g fill="#ffffff" fill-opacity="1"><g transform="translate(103.719727, 143.328979)"><g><path d="M 49.71875 0 L 3.453125 0 L 3.453125 -46.265625 L 14.359375 -46.265625 L 14.359375 -10.90625 L 49.71875 -10.90625 Z M 49.71875 0 "/></g></g></g><g fill="#ffffff" fill-opacity="1"><g transform="translate(154.913885, 143.328979)"><g><path d="M 14.359375 -46.265625 L 14.359375 -10.90625 L 38.8125 -10.90625 L 38.8125 -46.265625 L 49.71875 -46.265625 L 49.71875 0 L 3.453125 0 L 3.453125 -46.265625 Z M 14.359375 -46.265625 "/></g></g></g><g fill="#ffffff" fill-opacity="1"><g transform="translate(206.108044, 143.328979)"><g><path d="M 49.71875 0 L 3.453125 0 L 3.453125 -46.265625 L 14.359375 -46.265625 L 14.359375 -10.90625 L 49.71875 -10.90625 Z M 49.71875 0 "/></g></g></g><g fill="#ffffff" fill-opacity="1"><g transform="translate(257.302203, 143.328979)"><g><path d="M 14.359375 -46.265625 L 14.359375 -10.90625 L 38.8125 -10.90625 L 38.8125 -46.265625 L 49.71875 -46.265625 L 49.71875 0 L 3.453125 0 L 3.453125 -46.265625 Z M 14.359375 -46.265625 "/></g></g></g><g fill="#fedb00" fill-opacity="1"><g transform="translate(38.391159, 168.814505)"><g><path d="M 1.78125 0 L 1.78125 -11.875 L 11.46875 -11.875 L 11.46875 -9.921875 L 4.296875 -9.921875 L 4.296875 -6.890625 L 11.046875 -6.890625 L 11.046875 -4.9375 L 4.296875 -4.9375 L 4.296875 0 Z M 1.78125 0 "/></g></g></g><g fill="#fedb00" fill-opacity="1"><g transform="translate(60.985708, 168.814505)"><g><path d="M 7.859375 0.171875 C 5.804688 0.171875 4.257812 -0.25 3.21875 -1.09375 C 2.175781 -1.945312 1.65625 -3.191406 1.65625 -4.828125 L 1.65625 -11.875 L 4.15625 -11.875 L 4.15625 -4.90625 C 4.15625 -3.925781 4.46875 -3.1875 5.09375 -2.6875 C 5.71875 -2.195312 6.640625 -1.953125 7.859375 -1.953125 C 9.097656 -1.953125 10.023438 -2.195312 10.640625 -2.6875 C 11.253906 -3.1875 11.5625 -3.925781 11.5625 -4.90625 L 11.5625 -11.875 L 14.046875 -11.875 L 14.046875 -4.828125 C 14.046875 -3.191406 13.53125 -1.945312 12.5 -1.09375 C 11.46875 -0.25 9.921875 0.171875 7.859375 0.171875 Z M 7.859375 0.171875 "/></g></g></g><g fill="#fedb00" fill-opacity="1"><g transform="translate(87.198406, 168.814505)"><g><path d="M 5.34375 0 L 5.34375 -9.84375 L 0.203125 -9.84375 L 0.203125 -11.875 L 13 -11.875 L 13 -9.84375 L 7.859375 -9.84375 L 7.859375 0 Z M 5.34375 0 "/></g></g></g><g fill="#fedb00" fill-opacity="1"><g transform="translate(110.886808, 168.814505)"><g><path d="M 7.859375 0.171875 C 5.804688 0.171875 4.257812 -0.25 3.21875 -1.09375 C 2.175781 -1.945312 1.65625 -3.191406 1.65625 -4.828125 L 1.65625 -11.875 L 4.15625 -11.875 L 4.15625 -4.90625 C 4.15625 -3.925781 4.46875 -3.1875 5.09375 -2.6875 C 5.71875 -2.195312 6.640625 -1.953125 7.859375 -1.953125 C 9.097656 -1.953125 10.023438 -2.195312 10.640625 -2.6875 C 11.253906 -3.1875 11.5625 -3.925781 11.5625 -4.90625 L 11.5625 -11.875 L 14.046875 -11.875 L 14.046875 -4.828125 C 14.046875 -3.191406 13.53125 -1.945312 12.5 -1.09375 C 11.46875 -0.25 9.921875 0.171875 7.859375 0.171875 Z M 7.859375 0.171875 "/></g></g></g><g fill="#fedb00" fill-opacity="1"><g transform="translate(137.099505, 168.814505)"><g><path d="M 1.78125 0 L 1.78125 -11.875 L 8.359375 -11.875 C 9.953125 -11.875 11.164062 -11.570312 12 -10.96875 C 12.84375 -10.375 13.265625 -9.503906 13.265625 -8.359375 C 13.265625 -7.617188 13.082031 -6.988281 12.71875 -6.46875 C 12.351562 -5.957031 11.828125 -5.554688 11.140625 -5.265625 C 10.460938 -4.984375 9.640625 -4.820312 8.671875 -4.78125 L 8.828125 -4.9375 L 9.4375 -4.921875 C 9.894531 -4.898438 10.304688 -4.785156 10.671875 -4.578125 C 11.035156 -4.367188 11.375 -4.046875 11.6875 -3.609375 L 14.203125 0 L 11.421875 0 L 9 -3.578125 C 8.820312 -3.816406 8.644531 -4.003906 8.46875 -4.140625 C 8.300781 -4.285156 8.082031 -4.390625 7.8125 -4.453125 C 7.550781 -4.515625 7.207031 -4.546875 6.78125 -4.546875 L 4.296875 -4.546875 L 4.296875 0 Z M 4.296875 -6.390625 L 8.109375 -6.390625 C 9.054688 -6.390625 9.742188 -6.539062 10.171875 -6.84375 C 10.597656 -7.144531 10.8125 -7.597656 10.8125 -8.203125 C 10.8125 -8.796875 10.59375 -9.234375 10.15625 -9.515625 C 9.726562 -9.796875 9.03125 -9.9375 8.0625 -9.9375 L 4.296875 -9.9375 Z M 4.296875 -6.390625 "/></g></g></g><g fill="#fedb00" fill-opacity="1"><g transform="translate(162.302484, 168.814505)"><g><path d="M 1.78125 0 L 1.78125 -11.875 L 11.625 -11.875 L 11.625 -9.921875 L 4.234375 -9.921875 L 4.234375 -7 L 11.0625 -7 L 11.0625 -5.046875 L 4.234375 -5.046875 L 4.234375 -1.953125 L 11.625 -1.953125 L 11.625 0 Z M 1.78125 0 "/></g></g></g><g fill="#fedb00" fill-opacity="1"><g transform="translate(185.620667, 168.814505)"><g/></g></g><g fill="#fedb00" fill-opacity="1"><g transform="translate(201.837193, 168.814505)"><g><path d="M 1.78125 0 L 1.78125 -11.875 L 7.421875 -11.875 C 9.054688 -11.875 10.425781 -11.648438 11.53125 -11.203125 C 12.632812 -10.753906 13.46875 -10.085938 14.03125 -9.203125 C 14.59375 -8.328125 14.875 -7.242188 14.875 -5.953125 C 14.875 -4.660156 14.585938 -3.566406 14.015625 -2.671875 C 13.453125 -1.785156 12.617188 -1.117188 11.515625 -0.671875 C 10.421875 -0.222656 9.054688 0 7.421875 0 Z M 4.296875 -2.015625 L 7.28125 -2.015625 C 9.007812 -2.015625 10.273438 -2.328125 11.078125 -2.953125 C 11.878906 -3.578125 12.28125 -4.578125 12.28125 -5.953125 C 12.28125 -7.304688 11.878906 -8.296875 11.078125 -8.921875 C 10.273438 -9.546875 9.007812 -9.859375 7.28125 -9.859375 L 4.296875 -9.859375 Z M 4.296875 -2.015625 "/></g></g></g><g fill="#fedb00" fill-opacity="1"><g transform="translate(228.470598, 168.814505)"><g><path d="M 1.78125 0 L 1.78125 -11.875 L 11.625 -11.875 L 11.625 -9.921875 L 4.234375 -9.921875 L 4.234375 -7 L 11.0625 -7 L 11.0625 -5.046875 L 4.234375 -5.046875 L 4.234375 -1.953125 L 11.625 -1.953125 L 11.625 0 Z M 1.78125 0 "/></g></g></g><g fill="#fedb00" fill-opacity="1"><g transform="translate(251.788781, 168.814505)"><g><path d="M 6.296875 0 L -0.1875 -11.875 L 2.640625 -11.875 L 7.703125 -2.328125 L 7.203125 -2.328125 L 12.25 -11.875 L 14.984375 -11.875 L 8.515625 0 Z M 6.296875 0 "/></g></g></g></g></g></svg>